HIERARCHY
ROOT Hips
{
	OFFSET -0.179506 -22.333345 2.821913
	CHANNELS 6 Xposition Yposition Zposition Zrotation Yrotation Xrotation 
	JOINT LeftUpLeg
	{
		OFFSET 6.951974 -9.140623 -0.681533
		CHANNELS 3 Zrotation Yrotation Xrotation
		JOINT LeftLeg
		{
			OFFSET 3.427654 -37.519855 -0.449580
			CHANNELS 3 Zrotation Yrotation Xrotation
			JOINT LeftFoot
			{
				OFFSET -1.359570 -39.796059 -4.369333
				CHANNELS 3 Zrotation Yrotation Xrotation
				JOINT LeftToe
				{
					OFFSET 2.635814 -5.579078 11.928840
					CHANNELS 3 Zrotation Yrotation Xrotation
					End Site
					{
						OFFSET 0.000000 0.000000 0.000000
					}
				}
			}
		}
	}
	JOINT RightUpLeg
	{
		OFFSET -6.767048 -9.052170 -0.431982
		CHANNELS 3 Zrotation Yrotation Xrotation
		JOINT RightLeg
		{
			OFFSET -3.829005 -38.256897 -0.885003
			CHANNELS 3 Zrotation Yrotation Xrotation
			JOINT RightFoot
			{
				OFFSET 1.577377 -39.841461 -4.231180
				CHANNELS 3 Zrotation Yrotation Xrotation
				JOINT RightToe
				{
					OFFSET -2.537174 -4.814398 12.334795
					CHANNELS 3 Zrotation Yrotation Xrotation
					End Site
					{
						OFFSET 0.000000 0.000000 0.000000
					}
				}
			}
		}
	}
	JOINT Spine
	{
		OFFSET -0.253288 10.896323 -2.669631
		CHANNELS 3 Zrotation Yrotation Xrotation
		JOINT Spine1
		{
			OFFSET 0.548704 13.518043 0.109247
			CHANNELS 3 Zrotation Yrotation Xrotation
			JOINT Spine2
			{
				OFFSET 0.145701 5.292222 2.542457
				CHANNELS 3 Zrotation Yrotation Xrotation
				JOINT Neck
				{
					OFFSET -0.277840 21.387037 -4.285703
					CHANNELS 3 Zrotation Yrotation Xrotation
					JOINT Head
					{
						OFFSET 0.515184 6.496960 5.134897
						CHANNELS 3 Zrotation Yrotation Xrotation
						End Site
						{
							OFFSET 0.000000 0.000000 0.000000
						}
					}
				}
				JOINT LeftShoulder
				{
					OFFSET 7.884473 12.174932 -3.408961
					CHANNELS 3 Zrotation Yrotation Xrotation
					JOINT LeftArm
					{
						OFFSET 9.097692 3.046888 -0.886815
						CHANNELS 3 Zrotation Yrotation Xrotation
						JOINT LeftForeArm
						{
							OFFSET 25.961220 -1.277207 -2.745643
							CHANNELS 3 Zrotation Yrotation Xrotation
							JOINT LeftHand
							{
								OFFSET 24.923361 0.898606 -0.117091
								CHANNELS 3 Zrotation Yrotation Xrotation
								End Site
								{
									OFFSET 0.000000 0.000000 0.000000
								}
							}
						}
					}
				}
				JOINT RightShoulder
				{
					OFFSET -8.175920 11.883285 -3.861528
					CHANNELS 3 Zrotation Yrotation Xrotation
					JOINT RightArm
					{
						OFFSET -9.601238 3.255117 -0.914307
						CHANNELS 3 Zrotation Yrotation Xrotation
						JOINT RightForeArm
						{
							OFFSET -25.374195 -1.332924 -2.140099
							CHANNELS 3 Zrotation Yrotation Xrotation
							JOINT RightHand
							{
								OFFSET -25.529810 0.777228 -0.555919
								CHANNELS 3 Zrotation Yrotation Xrotation
								End Site
								{
									OFFSET 0.000000 0.000000 0.000000
								}
							}
						}
					}
				}
			}
		}
	}
}
MOTION
Frames: 15
Frame Time: 0.033333
173.560745 147.082977 -194.313446 -3.986841 82.893863 -11.391149 10.644229 1.342842 -20.688536 -11.028890 0.094563 79.588399 1.297953 9.238866 -4.209843 0.281962 -0.913892 -0.117908 -12.454923 -3.272724 -59.612889 4.142296 -15.133001 43.890506 -0.444235 -8.733863 8.482646 0.099741 0.646702 -2.093504 0.831112 -10.770634 47.755465 3.679680 1.423809 -7.750730 2.595244 -4.812225 5.928300 -9.220426 -2.908482 -10.964229 2.507688 8.686293 -16.098635 -15.228149 -2.878239 8.794084 -55.948768 7.554615 6.040523 -13.613293 -18.965927 14.862909 22.603613 -12.730484 -15.073335 5.449638 4.038285 6.389209 36.583049 -9.926623 0.761308 6.647447 29.001658 -1.426374 -26.262523 11.717457 -5.240875 
176.943130 143.998474 -193.840851 7.728595 81.110803 1.061091 9.315426 -1.186264 -36.535196 -8.169428 5.924293 88.550409 5.913762 9.246116 -11.372086 0.926545 -0.866682 -0.000486 -11.090747 0.045879 -59.044018 2.566604 -14.479066 51.972978 -2.649603 -8.694190 4.637356 0.946130 0.860481 -2.378635 -0.235739 -6.885528 51.847616 4.306681 0.793276 -7.476139 1.611676 -3.744086 3.637000 -7.957527 -3.829362 -11.179057 2.860476 5.630323 -16.815157 -17.098600 -9.233832 6.827028 -55.458305 -0.637283 6.856889 -9.077775 -12.937565 6.395005 21.321275 -11.578176 -10.828797 7.462275 10.346022 5.149177 37.127262 -2.802775 2.163048 3.595633 25.476819 -5.382131 -27.198429 10.132658 -8.163332 
179.961975 140.434677 -193.697449 4.814581 76.800282 1.513687 8.827758 -4.073430 -51.577328 -5.481771 10.084167 85.235013 7.876291 9.967953 -15.770439 1.228599 -1.013886 0.070446 -9.201102 2.377791 -59.289903 3.130914 -12.996893 58.491030 -3.430283 -7.431467 -3.120391 1.470557 0.712308 -2.272710 -0.952978 -3.125420 56.614850 3.740796 0.144993 -8.147456 0.733911 -2.608440 1.998202 -6.829859 -2.903453 -14.585429 3.817054 1.775118 -18.407420 -16.263444 -19.096426 3.552191 -50.993230 -13.715496 7.642011 -4.115847 -9.871068 -1.660828 22.944096 -12.176374 -9.108608 7.631015 19.584303 2.486906 34.629060 9.971204 0.420306 -2.947010 23.740865 -12.365248 -30.652095 9.137118 -13.372458 
182.366608 136.637878 -193.759506 7.645395 70.794065 7.293148 8.283962 -4.807556 -61.149037 -6.273440 11.404198 64.493533 6.488272 9.097631 -12.428464 1.767034 -1.403518 -0.313981 -5.804938 3.290901 -56.520023 3.883366 -11.019784 64.171936 -6.052312 -6.980684 -13.725118 2.082680 1.026392 -2.254902 -1.938247 0.362045 57.960142 2.339687 -0.480960 -7.496959 -0.584626 -0.939782 -0.089198 -7.991402 -1.673243 -14.125801 5.136523 -1.546079 -21.796887 -10.488648 -27.421343 -1.589186 -40.881353 -23.546269 3.760963 0.291429 -16.935495 -5.921459 27.685838 -12.141286 -10.187530 2.458520 28.465219 -0.768981 27.446831 20.643045 -5.605240 -9.024463 26.903612 -16.455815 -35.899065 9.236973 -15.923349 
185.109085 132.674591 -193.872513 4.166874 64.677651 4.508661 7.423060 -5.377761 -62.549646 -6.545821 7.490811 41.842233 3.434539 8.312823 -9.400653 2.474017 -1.770835 -0.672791 -2.033833 5.316527 -50.877758 2.779740 -8.260368 72.870251 -7.838484 -7.917500 -22.749260 2.462899 1.428309 -2.560723 -1.701115 1.484374 59.627208 1.229567 -0.792316 -6.352588 -1.811996 0.496832 -1.432204 -8.272976 -0.482254 -13.947504 7.187796 -4.180842 -24.893507 -2.214430 -34.384172 -9.501282 -27.394979 -31.018606 -3.229803 8.907955 -28.080110 -14.772625 31.836046 -10.859231 -10.802168 -6.659334 36.632514 -6.828523 14.452962 26.815525 -14.509360 -10.350227 25.565480 -19.375569 -37.934209 9.628183 -13.455524 
188.257721 130.773163 -193.716324 2.320980 58.168557 4.960612 7.342852 -4.753870 -62.835962 -5.093714 6.185617 32.005748 1.038050 9.022121 -4.363389 2.463154 -1.934186 -0.877477 2.341727 6.060915 -45.370166 2.488831 -6.036984 80.467155 -8.488309 -9.001220 -29.810959 2.746814 1.559357 -2.849019 -1.519254 1.916023 59.006688 0.371342 -0.401109 -6.154319 -2.703562 1.590305 -1.832365 -8.116843 2.253284 -15.348203 7.674856 -6.200875 -25.481279 9.179591 -36.051466 -18.647052 -12.451806 -31.482417 -10.611658 18.159916 -38.443220 -23.549125 34.378106 -11.855633 -7.796081 -17.577191 39.891125 -14.543356 0.796497 26.366666 -22.447007 -13.173361 30.844199 -22.850661 -38.796137 10.784331 -11.273002 
191.154984 130.524048 -193.101883 0.537792 51.847248 8.510924 8.150789 -4.699996 -67.231421 -4.867704 8.541146 37.060031 1.966356 10.710241 -3.670851 2.069397 -1.556516 -1.056584 4.904484 5.502190 -41.547541 4.779271 -4.353365 83.496150 -7.870214 -9.463906 -35.771854 2.716975 1.028598 -3.232529 -1.292802 3.387718 56.234112 -0.052962 -0.629336 -8.766313 -3.143336 2.246514 -1.159132 -7.697741 4.654684 -17.419534 8.311653 -7.221478 -23.133856 21.277941 -34.082764 -26.849258 4.105322 -29.779872 -18.824974 22.508274 -40.074400 -32.396537 33.933070 -11.741215 -8.132039 -26.238600 39.572056 -21.267582 -10.911012 24.349496 -27.652035 -14.032774 33.345780 -25.834673 -35.403831 10.183178 -12.329640 
193.655594 133.342804 -192.078217 -0.484537 47.360988 12.404949 8.809835 -4.816569 -68.306295 -4.570924 10.699769 44.362593 4.881645 12.627179 -8.234922 1.799645 -1.429182 -1.238117 5.704814 3.366227 -33.304426 6.927066 -1.720490 76.170960 -6.331549 -9.044697 -33.578572 3.127820 0.827631 -3.629609 -1.821632 5.580458 51.559498 0.530828 -1.158990 -10.252438 -3.260286 2.136668 -1.681509 -6.981317 5.772179 -17.249510 8.645374 -7.078257 -20.720840 26.682330 -30.848049 -28.888797 15.245205 -26.555727 -23.220353 18.367220 -38.176673 -33.304201 32.949781 -12.423406 -9.301522 -28.108912 37.534240 -22.849779 -15.998857 23.536759 -28.729666 -13.461813 34.559523 -26.360357 -32.763471 10.834834 -13.748013 
196.248672 138.886902 -190.936829 -1.789092 43.690566 15.299996 8.295298 -4.813734 -62.284081 -3.560997 9.043718 39.148247 5.758228 11.935369 -7.355582 1.700772 -1.521030 -1.275636 5.538519 1.170737 -22.867791 8.023340 2.641490 58.949278 -3.948272 -6.354613 -20.396575 3.655992 0.923960 -3.620194 -2.001657 6.962720 45.112211 0.605763 -0.743098 -10.290984 -3.034908 1.955631 -1.303831 -6.135776 5.491344 -15.902696 8.546325 -8.518072 -18.355391 25.757613 -28.262306 -26.105069 16.191215 -25.452257 -22.093101 12.929540 -39.161217 -27.073824 35.066369 -14.194222 -8.502680 -24.583297 35.063952 -20.052043 -12.636029 24.495555 -24.977698 -10.858165 36.635479 -21.079034 -35.064800 11.629052 -13.077089 
199.255341 145.402832 -189.118622 -4.668694 41.272765 14.642249 6.535776 -4.993701 -49.592115 -1.091261 6.872748 22.866614 5.370430 11.721357 3.739721 1.098338 -1.824886 -1.209606 3.900371 -1.183333 -13.579090 4.915718 6.246383 32.974832 1.708456 -1.086284 1.926841 3.354368 1.969715 -2.920129 -2.296390 8.532821 37.861821 1.720821 0.261506 -6.428049 -0.982859 1.660396 -1.207297 -6.371098 5.851192 -10.901922 7.747607 -11.363854 -17.132627 20.312316 -23.872433 -19.293085 6.432260 -26.414073 -19.152752 3.251789 -42.647490 -8.695094 36.041143 -19.193819 0.015920 -11.420568 28.903805 -10.060796 10.639109 23.268845 -7.698327 2.454643 39.373448 5.474885 -34.196712 14.223878 -3.352883 
201.523209 150.791336 -188.324600 -4.358497 39.531765 20.609059 5.261045 -2.349516 -38.793455 1.341781 7.657639 7.036170 0.386467 9.414792 16.217058 0.311964 -0.916741 -1.038138 2.693982 -3.546174 -12.322676 3.442985 5.409074 20.174687 8.518793 -0.851166 18.609293 2.605828 0.766442 -2.298670 0.346605 6.415132 35.160601 -1.290665 1.040722 -7.130431 -1.158042 2.855410 -0.525305 -5.895227 0.138891 -8.389510 8.638144 -7.488913 -14.372083 16.598805 -25.638813 -17.364274 -1.341016 -28.621346 -13.042378 6.158806 -47.865230 -9.397885 40.100382 -18.843430 -3.399215 -16.214506 30.575129 -10.571567 3.366688 26.457590 -16.058237 -5.095072 37.999523 -9.686618 -39.292709 13.888544 -5.921167 
202.999191 155.913483 -187.703171 -5.343997 40.265820 23.961197 5.201869 -1.863878 -35.485061 1.668929 6.731669 5.254023 -0.570127 8.224131 19.122504 0.163203 -1.002462 -1.026512 0.804933 -3.624095 -18.728116 4.405941 0.927195 27.699554 8.726237 -0.297931 20.166173 2.308318 0.992638 -2.315176 0.862182 4.856955 36.210010 -1.327392 1.655789 -6.600327 -1.265374 2.749798 -0.917765 -5.575567 -0.886618 -6.551907 7.986998 -5.954417 -13.612250 13.049111 -23.948513 -14.527911 -12.398421 -28.649974 -7.594516 7.122369 -51.800684 -6.155821 44.986970 -19.876493 -3.156675 -15.352112 28.791112 -9.212530 9.546656 27.898831 -13.848784 -7.911862 41.244432 -9.937040 -42.072785 15.164850 -5.026938 
203.920395 159.673355 -187.664856 -5.074533 42.361865 26.479774 5.283872 -2.682623 -36.291625 -0.088306 4.422769 11.908156 0.732755 7.068342 16.238406 0.349960 -1.162106 -1.042854 -2.623444 -3.007090 -30.105176 5.218950 -5.229685 48.824880 5.742521 0.378029 15.245752 2.732677 1.335048 -2.574148 0.694200 3.058792 40.275469 -0.404431 2.303819 -6.040810 -2.244810 2.245418 -2.209222 -5.616109 -0.865870 -6.399988 7.178459 -5.256186 -14.905180 11.158737 -24.818763 -13.806190 -16.722266 -27.755724 -5.521808 8.138786 -52.765243 -6.534261 45.142177 -19.823312 -1.244926 -13.907067 28.920264 -8.400113 13.418410 27.598600 -12.008026 -8.721065 44.033319 -9.295915 -42.754728 15.176831 -3.988895 
204.288086 162.463760 -187.937851 -3.408304 43.403394 26.756386 5.292326 -4.170825 -42.655783 -3.653578 4.259682 33.029847 3.439286 6.429882 13.035427 0.733216 -1.312634 -0.889993 -5.565295 -2.835045 -46.663600 2.522877 -12.114190 81.305786 2.683101 0.916575 12.656589 2.739771 1.923902 -3.272408 -0.674643 1.655305 47.335522 0.399704 2.431676 -6.456586 -3.228423 1.405629 -2.650146 -5.671792 -0.624446 -7.800718 7.593032 -2.895060 -17.016660 10.561624 -27.299373 -14.110660 -18.189957 -25.662928 -3.954622 8.714603 -50.982239 -8.495578 42.800968 -16.430359 -1.604505 -12.534357 30.126184 -7.992615 16.216051 25.553027 -10.464285 -8.809956 46.696079 -9.018117 -40.012786 13.077908 -4.951034 
203.321701 164.081039 -189.298218 -2.118048 44.951078 25.620158 7.031742 -4.963483 -53.536030 -6.547127 8.257780 61.453635 6.071392 6.771544 7.635727 0.934177 -1.182581 -0.333228 -7.503104 -2.751382 -62.729759 -0.066576 -17.438277 106.920992 1.516926 1.912351 12.624896 2.422707 2.082403 -3.458750 -2.387251 0.956834 55.327725 1.128341 2.023710 -8.023581 -3.299245 0.249885 -2.114306 -6.125697 -1.156672 -10.195849 7.794637 -0.901482 -18.101562 10.863218 -30.528533 -14.618053 -18.934454 -24.292613 -3.734047 6.574342 -45.754387 -7.336855 38.518667 -13.696078 -2.357774 -12.019095 30.828419 -8.199504 18.562052 22.754832 -8.703029 -7.484248 48.703082 -6.793257 -34.389651 10.055080 -10.208492 
